<svg xmlns="http://www.w3.org/2000/svg" id="preset1" width="134" height="39" viewBox="0 0 134 39">
    <defs>
        <style>.cls-1{fill:#fff;}.cls-2{fill:#ff5351;}</style>
    </defs>
    <title>logo</title>
    <path class="cls-1" d="M52.84,26.65A4.31,4.31,0,0,1,51,25.21a3.79,3.79,0,0,1-.7-2.22h3a1.94,1.94,0,0,0,.61,1.36,2.16,2.16,0,0,0,1.51.5A2.32,2.32,0,0,0,57,24.38a1.53,1.53,0,0,0,.56-1.23,1.42,1.42,0,0,0-.38-1,2.67,2.67,0,0,0-.95-.63A16.06,16.06,0,0,0,54.61,21a16.69,16.69,0,0,1-2.21-.79A3.86,3.86,0,0,1,50.94,19a3.36,3.36,0,0,1-.61-2.11A3.77,3.77,0,0,1,51,14.75a3.94,3.94,0,0,1,1.74-1.41,6.33,6.33,0,0,1,2.56-.49,5.55,5.55,0,0,1,3.51,1.05,3.9,3.9,0,0,1,1.49,2.93H57.18a1.6,1.6,0,0,0-.61-1.19,2.3,2.3,0,0,0-1.51-.47,1.94,1.94,0,0,0-1.31.42,1.52,1.52,0,0,0-.49,1.22,1.26,1.26,0,0,0,.37.93,2.81,2.81,0,0,0,.92.6c.37.15.88.33,1.55.53a16.28,16.28,0,0,1,2.22.8,4,4,0,0,1,1.48,1.2,3.33,3.33,0,0,1,.62,2.1,4,4,0,0,1-.58,2.08,4.1,4.1,0,0,1-1.7,1.53,5.8,5.8,0,0,1-2.66.57A6.62,6.62,0,0,1,52.84,26.65Z" transform="translate(-0.5 -0.5)" />
    <path class="cls-1" d="M65.49,26.23a6.87,6.87,0,0,1-2.6-2.55,7.13,7.13,0,0,1-1-3.69,7.09,7.09,0,0,1,1-3.67,6.87,6.87,0,0,1,2.6-2.55,7.52,7.52,0,0,1,7.21,0,6.82,6.82,0,0,1,2.58,2.55,7.15,7.15,0,0,1,1,3.67,7.19,7.19,0,0,1-1,3.69,6.79,6.79,0,0,1-2.59,2.55,7.51,7.51,0,0,1-7.2,0Zm5.82-2.15a3.92,3.92,0,0,0,1.5-1.63A5.34,5.34,0,0,0,73.35,20a5.28,5.28,0,0,0-.54-2.45,3.87,3.87,0,0,0-1.5-1.61,4.33,4.33,0,0,0-2.22-.56,4.38,4.38,0,0,0-2.23.56,3.84,3.84,0,0,0-1.51,1.61A5.28,5.28,0,0,0,64.81,20a5.34,5.34,0,0,0,.54,2.46,3.89,3.89,0,0,0,1.51,1.63,4.32,4.32,0,0,0,2.23.57A4.26,4.26,0,0,0,71.31,24.08Z" transform="translate(-0.5 -0.5)" />
    <path class="cls-1" d="M93.55,13.05V27h-2.8V17.93L87,27H84.89l-3.76-9.08V27h-2.8v-14h3.18l4.44,10.38,4.44-10.38Z" transform="translate(-0.5 -0.5)" />
    <path class="cls-1" d="M106.28,21a3.45,3.45,0,0,1,.76,2.2,3.55,3.55,0,0,1-.55,2,3.67,3.67,0,0,1-1.59,1.33,5.82,5.82,0,0,1-2.46.48h-6v-14h5.76a6,6,0,0,1,2.45.46,3.49,3.49,0,0,1,1.56,1.28,3.36,3.36,0,0,1,.53,1.86,3.19,3.19,0,0,1-.65,2,3.48,3.48,0,0,1-1.73,1.16A3.14,3.14,0,0,1,106.28,21Zm-7.06-2.22h2.56a2.35,2.35,0,0,0,1.54-.45,1.59,1.59,0,0,0,.54-1.29,1.62,1.62,0,0,0-.54-1.3,2.31,2.31,0,0,0-1.54-.46H99.22Zm4.41,5.44a1.68,1.68,0,0,0,.57-1.36,1.75,1.75,0,0,0-.6-1.41A2.42,2.42,0,0,0,102,21H99.22v3.76H102A2.4,2.4,0,0,0,103.63,24.25Z" transform="translate(-0.5 -0.5)" />
    <path class="cls-1" d="M116.56,27l-3.08-5.44h-1.32V27h-2.8v-14h5.24a6.12,6.12,0,0,1,2.76.57,4,4,0,0,1,1.71,1.54,4.21,4.21,0,0,1,.57,2.17,4.16,4.16,0,0,1-.8,2.49,4.11,4.11,0,0,1-2.38,1.53L119.8,27Zm-4.4-7.54h2.34a2.34,2.34,0,0,0,1.7-.55,2,2,0,0,0,.56-1.53,2,2,0,0,0-.56-1.49,2.39,2.39,0,0,0-1.7-.53h-2.34Z" transform="translate(-0.5 -0.5)" />
    <path class="cls-1" d="M130.62,24.35h-5.56L124.14,27H121.2l5-14h3.26l5,14h-3Zm-.76-2.24-2-5.84-2,5.84Z" transform="translate(-0.5 -0.5)" />
    <path class="cls-2" d="M43.37,17.55l-.44-.77a1.46,1.46,0,0,0-1.27-.73H33.53a1.22,1.22,0,1,1,0-2.45h5a1.46,1.46,0,0,0,1.27-2.19L34.93,2.94A4.89,4.89,0,0,0,30.7.5H13.83A4.89,4.89,0,0,0,9.59,2.95L1.15,17.55a4.91,4.91,0,0,0,0,4.89l.48.83A1.46,1.46,0,0,0,2.9,24h8.28a1.22,1.22,0,1,1,0,2.45H6a1.46,1.46,0,0,0-1.27,2.19l4.85,8.4a4.89,4.89,0,0,0,4.24,2.45H30.7a4.89,4.89,0,0,0,4.24-2.44l8.44-14.61A4.91,4.91,0,0,0,43.37,17.55ZM30.55,11.43a0,0,0,0,1,0,0h-9.7a3.42,3.42,0,0,0,0,6.84h3.05a6.6,6.6,0,0,1,2.62.59,6.86,6.86,0,0,1,4,7.26,7,7,0,0,1-7,5.83H14a0,0,0,0,1,0,0V28.57a0,0,0,0,1,0,0h9.55a3.53,3.53,0,0,0,3.58-3.34,3.43,3.43,0,0,0-3.42-3.51H21A6.84,6.84,0,0,1,20.82,8h9.7a0,0,0,0,1,0,0Z" transform="translate(-0.5 -0.5)" />
</svg>